<?xml version="1.0" encoding="utf-8"?>
<!-- Generator: Adobe Illustrator 23.0.0, SVG Export Plug-In . SVG Version: 6.00 Build 0)  -->
<svg version="1.1" id="Livello_1" xmlns="http://www.w3.org/2000/svg" xmlns:xlink="http://www.w3.org/1999/xlink" x="0px" y="0px"
	 viewBox="0 0 304.8 413.2" style="enable-background:new 0 0 304.8 413.2;" xml:space="preserve">
<g>
	<path d="M133.9,3.6c22.3,12.2,44.5,24.6,66.8,36.7c6,3.2,8.9,7.8,9.9,14.4c5.2,35.8,10.6,71.6,15.9,107.4c2,13.8,4,27.6,6.2,42.5
		c5.1-4.9,9.8-9.3,14.4-13.8c0.6-0.6,0.5-2,0.4-3c-0.5-4.8,1.2-8.6,4.5-11.9c3.4-3.2,6.7-6.5,10.2-9.6c3.1-2.9,6.7-3.9,11-3.6
		c1.8,0.1,3.9-0.9,5.5-2c2.9-1.9,5.2-4.7,8.2-6.2c5.3-2.5,11.7-0.4,15.3,4.4c3.4,4.6,3.5,10.9,0,15.7c-0.9,1.2-1.9,2.3-3,3.2
		c-3.2,2.7-5.1,5.4-4.8,10.1c0.2,2.7-2,5.9-3.9,8.3c-2.6,3.2-5.9,5.7-8.8,8.7c-3.9,4-8.4,5.9-14.1,5c-1-0.2-2.3,0.3-3,1
		c-8.5,7.9-16.9,15.9-25.2,24c-1.1,1.1-1.7,3.3-1.5,4.9c2.4,16.9,4.9,33.7,7.4,50.5c3.3,22.5,6.7,45,10,67.5
		c1.9,13.2,4,26.3,5.7,39.5c1.2,9.5-4.6,15.8-14.3,15.8c-77.5,0-154.9,0-232.4,0c-10,0-15.7-6.7-14.2-16.7
		c6.1-41.5,12.3-82.9,18.4-124.4c6.2-42.3,12.4-84.5,18.7-126.8c4.5-30.7,9.1-61.3,13.6-92c0.8-5.3,3.2-9.5,8-12.1
		c21.5-11.8,42.9-23.7,64.3-35.5c1.4-0.8,2.8-1.4,4.2-2.1C129.7,3.6,131.8,3.6,133.9,3.6z M91.6,297.9c0-1.9,0-3.5,0-5.1
		c0-49.3,0-98.6,0-148c0-9.6,5.3-14.8,14.8-14.8c16.1,0,32.3,0,48.4,0c10.1,0,15.1,5.1,15.2,15.3c0,38,0,76,0,114c0,1.4,0,2.8,0,4.3
		c0.7-0.1,1-0.1,1.1-0.3c12.3-11.7,24.6-23.3,36.7-35.1c0.8-0.8,1.4-2.4,1.2-3.5c-1.8-13-3.9-26.1-5.8-39.1
		c-3.6-24.2-7.2-48.4-10.8-72.6c-1.7-11.3-3.4-22.6-5.1-34c-37.9,0-75.4,0-113.3,0c-10.8,72.9-21.6,145.7-32.4,218.7
		C58.5,297.9,74.8,297.9,91.6,297.9z M232.9,386.7c-3.1-20.8-6.1-41.4-9.1-62c-1-0.1-1.5-0.2-2-0.2c-60.4,0-120.7,0-181.1-0.1
		c-2.7,0-3.3,1.2-3.6,3.5c-0.8,6.6-1.9,13.2-2.9,19.7c-1.9,13-3.8,26-5.7,39.1C96.7,386.7,164.6,386.7,232.9,386.7z M143.3,297.9
		c0-47.2,0-94.2,0-141.3c-8.5,0-16.7,0-25,0c0,47.2,0,94.1,0,141.3C126.7,297.9,134.8,297.9,143.3,297.9z M214,259
		c-13.9,13.3-27.1,25.8-40.7,38.8c15.9,0,31,0,46.5,0C217.9,285,216,272.4,214,259z M166.1,52.3c0.2-0.2,0.3-0.5,0.5-0.7
		c-0.4-0.1-0.7-0.2-1.1-0.4c-10.9-6-21.8-12.1-32.9-18c-1.2-0.6-3.4-0.3-4.6,0.4c-9.4,5-18.7,10.2-28,15.4c-1.7,0.9-3.3,1.9-5.9,3.3
		C118.9,52.3,142.5,52.3,166.1,52.3z"/>
</g>
</svg>
